<svg version="1.1" xmlns="http://www.w3.org/2000/svg" viewBox="0 0 388.0696985883723 738.562636104505" width="388.0696985883723" height="738.562636104505">
  <!-- svg-source:excalidraw -->
  
  <defs>
    <style class="style-fonts">
      @font-face {
        font-family: "Virgil";
        src: url("https://excalidraw.com/Virgil.woff2");
      }
      @font-face {
        font-family: "Cascadia";
        src: url("https://excalidraw.com/Cascadia.woff2");
      }
    </style>
    
  </defs>
  <rect x="0" y="0" width="388.0696985883723" height="738.562636104505" fill="#ffffff"/><g transform="translate(138.53239640908328 10) rotate(0 61.15234375 11.5)"><text x="0" y="0" font-family="Helvetica, Segoe UI Emoji" font-size="20px" fill="#000000" text-anchor="start" style="white-space: pre;" direction="ltr" dominant-baseline="text-before-edge">методология</text></g><g stroke-linecap="round"><g transform="translate(132.23223279545095 34.484375) rotate(0 69.669921875 -0.927734375)"><path d="M-0.09 0.02 C23.12 -0.29, 116 -1.46, 139.24 -1.77 M0.15 -0.1 C23.4 -0.46, 116.34 -1.66, 139.53 -1.99" stroke="#000000" stroke-width="1" fill="none"/></g></g><mask/><g transform="translate(161.4684355853313 289.06640625) rotate(0 36.123046875 11.5)"><text x="0" y="0" font-family="Helvetica, Segoe UI Emoji" font-size="20px" fill="#000000" text-anchor="start" style="white-space: pre;" direction="ltr" dominant-baseline="text-before-edge">DevOps</text></g><g stroke-linecap="round"><g transform="translate(156.2418730853313 317.45703125) rotate(0 45.4140625 0.32421875)"><path d="M-0.1 0.09 C15.06 0.2, 75.72 0.58, 90.86 0.69 M0.12 0 C15.27 0.07, 75.61 0.36, 90.76 0.45" stroke="#000000" stroke-width="1" fill="none"/></g></g><mask/><g transform="translate(27.919732795450955 84.984375) rotate(0 44.0380859375 11.5)"><text x="0" y="0" font-family="Helvetica, Segoe UI Emoji" font-size="20px" fill="#000000" text-anchor="start" style="white-space: pre;" direction="ltr" dominant-baseline="text-before-edge">практика</text></g><g stroke-linecap="round"><g transform="translate(24.169732795450955 110.94140625) rotate(0 52.337890625 0)"><path d="M0.03 0.04 C17.47 0.05, 87.12 0.13, 104.57 0.13 M-0.13 -0.06 C17.37 -0.1, 87.38 -0.03, 104.84 -0.06" stroke="#000000" stroke-width="1" fill="none"/></g></g><mask/><g transform="translate(152.9709133901169 85.02962897890382) rotate(0 44.0380859375 11.5)"><text x="0" y="0" font-family="Helvetica, Segoe UI Emoji" font-size="20px" fill="#000000" text-anchor="start" style="white-space: pre;" direction="ltr" dominant-baseline="text-before-edge">практика</text></g><g stroke-linecap="round"><g transform="translate(149.2209133901169 110.98666022890382) rotate(0 52.337890625 0)"><path d="M-0.11 0.13 C17.34 0.14, 87.26 0.06, 104.71 0.05 M0.11 0.07 C17.54 0.03, 87.22 -0.15, 104.62 -0.18" stroke="#000000" stroke-width="1" fill="none"/></g></g><mask/><g transform="translate(276.25278102648457 85.39883302995003) rotate(0 44.0380859375 11.5)"><text x="0" y="0" font-family="Helvetica, Segoe UI Emoji" font-size="20px" fill="#000000" text-anchor="start" style="white-space: pre;" direction="ltr" dominant-baseline="text-before-edge">практика</text></g><g stroke-linecap="round"><g transform="translate(272.50278102648457 111.35586427995003) rotate(0 52.337890625 0)"><path d="M0.04 0.05 C17.49 0.05, 87.17 0.13, 104.63 0.11 M-0.12 -0.05 C17.32 -0.03, 87.02 -0.1, 104.49 -0.09" stroke="#000000" stroke-width="1" fill="none"/></g></g><mask/><g stroke-linecap="round"><g transform="translate(193.17754529545095 40.22265625) rotate(0 -0.072265625 22.625)"><path d="M0.05 -0.05 C0.02 7.5, 0.01 37.75, -0.03 45.31 M-0.1 -0.2 C-0.15 7.3, -0.05 37.54, -0.09 45.09" stroke="#000000" stroke-width="1" fill="none"/></g></g><mask/><g stroke-linecap="round"><g transform="translate(195.29863904545095 61.93359375) rotate(0 63.612161135741005 12.972350527220101)"><path d="M-0.08 0.18 C18.91 0.19, 92.78 -4.2, 114.02 0.13 C135.26 4.45, 125.14 21.86, 127.35 26.14 M0.31 0.07 C19.27 0.09, 92.73 -3.93, 113.89 0.36 C135.05 4.64, 125.01 21.51, 127.26 25.79" stroke="#000000" stroke-width="1" fill="none"/></g></g><mask/><g stroke-linecap="round"><g transform="translate(192.61113904545095 62.0703125) rotate(0 -61.07421875 11.306640625)"><path d="M0.17 0.1 C-18.06 0.21, -88.91 -3.18, -109.27 0.58 C-129.62 4.35, -119.8 19.04, -121.96 22.68 M-0.01 -0.04 C-18.17 0.01, -88.51 -3.46, -108.84 0.26 C-129.17 3.98, -119.78 18.57, -122.01 22.29" stroke="#000000" stroke-width="1" fill="none"/></g></g><mask/><g transform="translate(30.09715014027438 351.734375) rotate(0 14.443359375 11.5)"><text x="0" y="0" font-family="Helvetica, Segoe UI Emoji" font-size="20px" fill="#000000" text-anchor="start" style="white-space: pre;" direction="ltr" dominant-baseline="text-before-edge">CD</text></g><g stroke-linecap="round"><g transform="translate(23.13230639027438 379.3515625) rotate(0 17.30078125 0)"><path d="M-0.08 0.08 C5.68 0.07, 28.95 0.08, 34.73 0.04 M0.14 -0.01 C5.89 -0.06, 28.96 -0.19, 34.67 -0.19" stroke="#000000" stroke-width="1" fill="none"/></g></g><mask/><g transform="translate(192.9773511985266 352.22265625) rotate(0 10 11.5)"><text x="0" y="0" font-family="Helvetica, Segoe UI Emoji" font-size="20px" fill="#000000" text-anchor="start" style="white-space: pre;" direction="ltr" dominant-baseline="text-before-edge">CI</text></g><g stroke-linecap="round"><g transform="translate(188.85365328185992 380.07421875) rotate(0 16.142578125 0.580078125)"><path d="M0.13 0.05 C5.51 0.21, 26.86 0.87, 32.23 1.04 M0.01 -0.06 C5.38 0.11, 26.7 0.97, 32.08 1.17" stroke="#000000" stroke-width="1" fill="none"/></g></g><mask/><g transform="translate(102.23265241296554 351.15234375) rotate(0 15.5615234375 11.5)"><text x="0" y="0" font-family="Helvetica, Segoe UI Emoji" font-size="20px" fill="#000000" text-anchor="start" style="white-space: pre;" direction="ltr" dominant-baseline="text-before-edge">IaC</text></g><g stroke-linecap="round"><g transform="translate(100.56728782963222 378.38671875) rotate(0 22.82421875 0)"><path d="M-0.06 -0.12 C7.54 -0.15, 38.11 -0.13, 45.71 -0.13 M0.18 0.14 C7.75 0.12, 38.02 0.02, 45.62 -0.01" stroke="#000000" stroke-width="1" fill="none"/></g></g><mask/><g transform="translate(284.58600810457955 350.83203125) rotate(0 37.2314453125 11.5)"><text x="0" y="0" font-family="Helvetica, Segoe UI Emoji" font-size="20px" fill="#000000" text-anchor="start" style="white-space: pre;" direction="ltr" dominant-baseline="text-before-edge">Platform</text></g><g stroke-linecap="round"><g transform="translate(283.6680393545796 378.5703125) rotate(0 46.845703125 0.134765625)"><path d="M0.06 -0.13 C15.66 -0.08, 77.94 0.06, 93.55 0.15 M-0.09 0.12 C15.56 0.19, 78.18 0.26, 93.8 0.27" stroke="#000000" stroke-width="1" fill="none"/></g></g><mask/><g stroke-linecap="round"><g transform="translate(44.279107795450955 348.375) rotate(0 144.296875 -6.759765625)"><path d="M-0.17 -0.19 C5.06 -2.51, -11.19 -11.44, 31.2 -13.83 C73.6 -16.22, 211.32 -17, 254.19 -14.52 C297.07 -12.04, 282.73 -1.56, 288.45 1.05 M0.1 0.13 C5.39 -2.26, -10.79 -11.65, 31.55 -14.14 C73.9 -16.63, 211.35 -17.36, 254.16 -14.81 C296.97 -12.26, 282.64 -1.49, 288.41 1.18" stroke="#000000" stroke-width="1" fill="none"/></g></g><mask/><g stroke-linecap="round"><g transform="translate(201.65801404545095 320.98828125) rotate(0 0.955078125 14.234375)"><path d="M-0.15 -0.13 C0.16 4.66, 1.58 23.87, 1.94 28.61 M0.05 0.14 C0.34 4.9, 1.51 23.7, 1.84 28.42" stroke="#000000" stroke-width="1" fill="none"/></g></g><mask/><g stroke-linecap="round"><g transform="translate(120.44317029545095 333.26171875) rotate(0 0 7.08203125)"><path d="M-0.12 0.03 C-0.08 2.43, 0.14 11.94, 0.14 14.28 M0.08 -0.08 C0.13 2.3, 0.08 11.7, 0.09 14.08" stroke="#000000" stroke-width="1" fill="none"/></g></g><mask/><g transform="translate(93.14910925834911 174.1536903148517) rotate(0 33.1005859375 11.5)"><text x="0" y="0" font-family="Helvetica, Segoe UI Emoji" font-size="20px" fill="#000000" text-anchor="start" style="white-space: pre;" direction="ltr" dominant-baseline="text-before-edge">теория</text></g><g stroke-linecap="round"><g transform="translate(87.91473425834911 201.4544715648517) rotate(0 42.349609375 -0.775390625)"><path d="M0.05 0.08 C14.13 -0.17, 70.49 -1.3, 84.6 -1.59 M-0.1 0 C14.01 -0.23, 70.77 -1.16, 84.89 -1.42" stroke="#000000" stroke-width="1" fill="none"/></g></g><mask/><g transform="translate(206.20770300834909 174.65809499495663) rotate(0 53.6865234375 11.5)"><text x="0" y="0" font-family="Helvetica, Segoe UI Emoji" font-size="20px" fill="#000000" text-anchor="start" style="white-space: pre;" direction="ltr" dominant-baseline="text-before-edge">технологии</text></g><g stroke-linecap="round"><g transform="translate(208.14520300834909 200.54481374495663) rotate(0 55.32421875 -0.439453125)"><path d="M0.05 -0.12 C18.51 -0.28, 92.23 -0.9, 110.64 -1.02 M-0.1 0.13 C18.34 -0.01, 92.04 -0.77, 110.52 -0.91" stroke="#000000" stroke-width="1" fill="none"/></g></g><mask/><g stroke-linecap="round"><g transform="translate(124.98114050834911 171.4505653148517) rotate(0 70.1328125 -5.142578125)"><path d="M0.02 -0.17 C1.96 -2.75, -9.32 -12.76, 11.63 -15.25 C32.58 -17.74, 104.28 -18.45, 125.72 -15.12 C147.16 -11.79, 137.86 1.39, 140.28 4.75 M-0.22 0.19 C1.69 -2.26, -9.51 -12.5, 11.47 -15.01 C32.46 -17.53, 104.2 -18.21, 125.68 -14.9 C147.15 -11.59, 137.85 1.52, 140.33 4.85" stroke="#000000" stroke-width="1" fill="none"/></g></g><mask/><g stroke-linecap="round"><g transform="translate(197.92645300834914 113.3724403148517) rotate(0 0.294921875 21.04296875)"><path d="M0.06 0.08 C0.14 7.1, 0.53 35.03, 0.64 42.04 M-0.09 -0.01 C-0.03 7.04, 0.43 35.14, 0.56 42.2" stroke="#000000" stroke-width="1" fill="none"/></g></g><mask/><g transform="translate(105.79472384172965 436.0131652990161) rotate(0 33.1005859375 11.5)"><text x="0" y="0" font-family="Helvetica, Segoe UI Emoji" font-size="20px" fill="#000000" text-anchor="start" style="white-space: pre;" direction="ltr" dominant-baseline="text-before-edge">теория</text></g><g stroke-linecap="round"><g transform="translate(100.56034884172965 463.31394654901607) rotate(0 42.349609375 -0.775390625)"><path d="M-0.01 -0.04 C14.11 -0.27, 70.49 -1.26, 84.6 -1.51 M-0.19 -0.18 C13.99 -0.46, 70.77 -1.56, 84.89 -1.76" stroke="#000000" stroke-width="1" fill="none"/></g></g><mask/><g transform="translate(218.85331759172965 436.51756997912105) rotate(0 53.6865234375 11.5)"><text x="0" y="0" font-family="Helvetica, Segoe UI Emoji" font-size="20px" fill="#000000" text-anchor="start" style="white-space: pre;" direction="ltr" dominant-baseline="text-before-edge">технологии</text></g><g stroke-linecap="round"><g transform="translate(220.79081759172965 462.404288729121) rotate(0 55.32421875 -0.439453125)"><path d="M-0.09 0.04 C18.34 -0.1, 92.14 -0.72, 110.61 -0.88 M0.13 -0.07 C18.54 -0.18, 92.05 -0.57, 110.47 -0.69" stroke="#000000" stroke-width="1" fill="none"/></g></g><mask/><g stroke-linecap="round"><g transform="translate(137.62675509172965 433.3100402990161) rotate(0 70.1328125 -5.142578125)"><path d="M0.05 -0.05 C2 -2.55, -9.28 -12.56, 11.63 -15.1 C32.54 -17.65, 104.06 -18.68, 125.51 -15.3 C146.96 -11.93, 137.88 1.72, 140.35 5.12 M-0.17 -0.26 C1.75 -2.81, -9.45 -12.93, 11.47 -15.42 C32.39 -17.91, 103.86 -18.55, 125.36 -15.18 C146.85 -11.81, 137.97 1.38, 140.43 4.78" stroke="#000000" stroke-width="1" fill="none"/></g></g><mask/><g stroke-linecap="round"><g transform="translate(205.61395300834914 382.9505653148517) rotate(0 0.224609375 15.158203125)"><path d="M0.13 0.14 C0.18 5.19, 0.34 25.32, 0.37 30.37 M0.02 0.09 C0.11 5.08, 0.56 25.11, 0.66 30.14" stroke="#000000" stroke-width="1" fill="none"/></g></g><mask/><g transform="translate(37.56823876937395 504.1263465648517) rotate(0 54.2333984375 23)"><text x="0" y="0" font-family="Helvetica, Segoe UI Emoji" font-size="20px" fill="#000000" text-anchor="start" style="white-space: pre;" direction="ltr" dominant-baseline="text-before-edge">частая</text><text x="0" y="23" font-family="Helvetica, Segoe UI Emoji" font-size="20px" fill="#000000" text-anchor="start" style="white-space: pre;" direction="ltr" dominant-baseline="text-before-edge">интеграция</text></g><g stroke-linecap="round"><g transform="translate(35.99402001937395 555.9740028148517) rotate(0 61.068359375 -1.044921875)"><path d="M-0.02 0.03 C20.33 -0.3, 101.7 -1.63, 122.07 -1.97 M-0.21 -0.09 C20.11 -0.45, 101.52 -1.81, 121.91 -2.18" stroke="#000000" stroke-width="1" fill="none"/></g></g><mask/><g transform="translate(38.86235707014342 587.9427528148517) rotate(0 50.95703125 23)"><text x="0" y="0" font-family="Helvetica, Segoe UI Emoji" font-size="20px" fill="#000000" text-anchor="start" style="white-space: pre;" direction="ltr" dominant-baseline="text-before-edge">маленькие</text><text x="0" y="23" font-family="Helvetica, Segoe UI Emoji" font-size="20px" fill="#000000" text-anchor="start" style="white-space: pre;" direction="ltr" dominant-baseline="text-before-edge">кусочки</text></g><g stroke-linecap="round"><g transform="translate(35.23735707014342 643.9779090648517) rotate(0 57.310546875 0.11328125)"><path d="M-0.11 -0.12 C19 -0.07, 95.63 0.19, 114.74 0.25 M0.1 0.14 C19.19 0.14, 95.63 -0.04, 114.69 0.01" stroke="#000000" stroke-width="1" fill="none"/></g></g><mask/><g transform="translate(35.82098425834917 674.2044715648517) rotate(0 58.017578125 23)"><text x="0" y="0" font-family="Helvetica, Segoe UI Emoji" font-size="20px" fill="#000000" text-anchor="start" style="white-space: pre;" direction="ltr" dominant-baseline="text-before-edge">избегаем</text><text x="0" y="23" font-family="Helvetica, Segoe UI Emoji" font-size="20px" fill="#000000" text-anchor="start" style="white-space: pre;" direction="ltr" dominant-baseline="text-before-edge">конфликтов</text></g><g stroke-linecap="round"><g transform="translate(34.61395300834917 728.5404090648517) rotate(0 61.865234375 -1.275390625)"><path d="M-0.04 0.02 C20.61 -0.41, 103.15 -2.18, 123.79 -2.61 M0.22 -0.1 C20.86 -0.51, 103.12 -2.07, 123.7 -2.45" stroke="#000000" stroke-width="1" fill="none"/></g></g><mask/><g transform="translate(246.557525374266 508.0521278148518) rotate(0 44.0478515625 34.5)"><text x="44.0478515625" y="0" font-family="Helvetica, Segoe UI Emoji" font-size="20px" fill="#000000" text-anchor="middle" style="white-space: pre;" direction="ltr" dominant-baseline="text-before-edge">система</text><text x="44.0478515625" y="23" font-family="Helvetica, Segoe UI Emoji" font-size="20px" fill="#000000" text-anchor="middle" style="white-space: pre;" direction="ltr" dominant-baseline="text-before-edge">контроля</text><text x="44.0478515625" y="46" font-family="Helvetica, Segoe UI Emoji" font-size="20px" fill="#000000" text-anchor="middle" style="white-space: pre;" direction="ltr" dominant-baseline="text-before-edge">версий</text></g><g stroke-linecap="round"><g transform="translate(245.33528487867864 578.8745743865979) rotate(0 50.33203125 -0.7421875)"><path d="M-0.06 -0.05 C16.71 -0.29, 83.83 -1.19, 100.6 -1.41 M0.18 -0.2 C16.94 -0.49, 83.74 -1.41, 100.45 -1.64" stroke="#000000" stroke-width="1" fill="none"/></g></g><mask/><g transform="translate(231.9099599527936 616.7431000370739) rotate(0 54.7412109375 23)"><text x="54.7412109375" y="0" font-family="Helvetica, Segoe UI Emoji" font-size="20px" fill="#000000" text-anchor="middle" style="white-space: pre;" direction="ltr" dominant-baseline="text-before-edge">CI</text><text x="54.7412109375" y="23" font-family="Helvetica, Segoe UI Emoji" font-size="20px" fill="#000000" text-anchor="middle" style="white-space: pre;" direction="ltr" dominant-baseline="text-before-edge">инструмент</text></g><g stroke-linecap="round"><g transform="translate(227.0974599527936 669.9579437870739) rotate(0 58.81640625 -0.958984375)"><path d="M-0.13 -0.06 C19.45 -0.38, 97.91 -1.63, 117.53 -1.95 M0.07 -0.22 C19.7 -0.51, 98.25 -1.5, 117.82 -1.77" stroke="#000000" stroke-width="1" fill="none"/></g></g><mask/><g stroke-linecap="round"><g transform="translate(139.47723425834914 462.4544715648517) rotate(0 -63.298828125 119.904296875)"><path d="M0.63 0.03 C-1.27 2.98, 8.39 12.46, -11.16 18.77 C-30.72 25.08, -97.46 5.61, -116.69 37.9 C-135.92 70.19, -127.39 179.05, -126.57 212.5 C-125.75 245.96, -114.42 234.09, -111.78 238.64 M-0.5 -1.01 C-2.6 2.68, 7.27 13.67, -12.28 20.35 C-31.83 27.02, -98.8 6.93, -117.81 39.06 C-136.81 71.19, -127.07 179.89, -126.3 213.12 C-125.54 246.35, -115.52 234.14, -113.2 238.42" stroke="#000000" stroke-width="1" fill="none"/></g></g><mask/><g stroke-linecap="round"><g transform="translate(14.863953008349142 528.1224403148517) rotate(0 10.044921875 -0.16796875)"><path d="M0.01 -0.05 C3.38 -0.08, 16.8 -0.22, 20.15 -0.29 M-0.16 -0.2 C3.2 -0.27, 16.71 -0.5, 20.07 -0.52" stroke="#000000" stroke-width="1" fill="none"/></g></g><mask/><g stroke-linecap="round"><g transform="translate(12.320984258349142 610.2044715648517) rotate(0 11.396484375 0.35546875)"><path d="M-0.05 0.12 C3.73 0.25, 18.89 0.5, 22.7 0.61 M0.2 0.06 C4.02 0.21, 19.22 0.67, 22.98 0.75" stroke="#000000" stroke-width="1" fill="none"/></g></g><mask/><g stroke-linecap="round"><g transform="translate(279.91082800834914 464.85649891829775) rotate(0 48.26059313830871 87.7564420414113)"><path d="M-0.51 -0.58 C0.83 2.66, -6.75 14.21, 7.6 19.36 C21.95 24.5, 70.82 7.84, 85.6 30.29 C100.37 52.75, 99.36 129.94, 96.25 154.06 C93.15 178.18, 71.64 171.31, 66.96 175.01 M1.42 1.73 C2.63 5.13, -7.37 15.59, 6.59 20.58 C20.56 25.57, 70.22 9.31, 85.18 31.66 C100.14 54.01, 99.07 130.75, 96.36 154.67 C93.65 178.58, 73.93 171.64, 68.94 175.14" stroke="#000000" stroke-width="1" fill="none"/></g></g><mask/><g stroke-linecap="round"><g transform="translate(377.5318325174474 543.5762288888054) rotate(0 -12.37890625 0)"><path d="M-0.02 0.07 C-4.12 0.07, -20.53 -0.02, -24.64 -0.04 M-0.2 -0.02 C-4.32 0, -20.6 0.11, -24.7 0.13" stroke="#000000" stroke-width="1" fill="none"/></g></g><mask/></svg>