<svg version="1.1" xmlns="http://www.w3.org/2000/svg" viewBox="0 0 375.7384410459827 283.3230056297034" width="751.4768820919654" height="566.6460112594068">
  <!-- svg-source:excalidraw -->
  
  <defs>
    <style>
      @font-face {
        font-family: "Virgil";
        src: url("https://excalidraw.com/Virgil.woff2");
      }
      @font-face {
        font-family: "Cascadia";
        src: url("https://excalidraw.com/Cascadia.woff2");
      }
    </style>
  </defs>
  <rect x="0" y="0" width="375.7384410459827" height="283.3230056297034" fill="#ffffff"/><g transform="translate(126.02594517372546 10) rotate(0 62.5 11.5)"><text x="0" y="19" font-family="Helvetica, Segoe UI Emoji" font-size="20px" fill="#000000" text-anchor="start" style="white-space: pre;" direction="ltr">методология</text></g><g stroke-linecap="round"><g transform="translate(119.72578156009314 34.484375) rotate(0 69.669921875 -0.927734375)"><path d="M-0.65 0.84 C22.57 0.64, 116.33 -1.47, 139.5 -1.75 M1.21 0.23 C24.27 0.3, 115.38 0.32, 138.63 -0.15" stroke="#000000" stroke-width="1" fill="none"/></g></g><g transform="translate(148.96198434997348 181.29296875) rotate(0 37.5 11.5)"><text x="0" y="19" font-family="Helvetica, Segoe UI Emoji" font-size="20px" fill="#000000" text-anchor="start" style="white-space: pre;" direction="ltr">DevOps</text></g><g stroke-linecap="round"><g transform="translate(143.73542184997348 209.68359375) rotate(0 45.4140625 0.32421875)"><path d="M0.92 -0.17 C15.89 -0.06, 75.75 0.78, 90.64 1.01 M-0.06 -1.3 C14.67 -1.6, 74.72 -1, 89.6 -0.93" stroke="#000000" stroke-width="1" fill="none"/></g></g><g transform="translate(15.41328156009314 84.984375) rotate(0 45 11.5)"><text x="0" y="19" font-family="Helvetica, Segoe UI Emoji" font-size="20px" fill="#000000" text-anchor="start" style="white-space: pre;" direction="ltr">практика</text></g><g stroke-linecap="round"><g transform="translate(11.66328156009314 110.94140625) rotate(0 52.337890625 0)"><path d="M-0.13 -0.96 C17.19 -0.9, 87.27 -0.55, 104.77 -0.49 M-1.66 1.16 C15.44 1.45, 86.23 0.91, 103.87 0.79" stroke="#000000" stroke-width="1" fill="none"/></g></g><g transform="translate(140.46446215475908 84.90853522890382) rotate(0 45 11.5)"><text x="0" y="19" font-family="Helvetica, Segoe UI Emoji" font-size="20px" fill="#000000" text-anchor="start" style="white-space: pre;" direction="ltr">практика</text></g><g stroke-linecap="round"><g transform="translate(136.71446215475908 110.86556647890382) rotate(0 52.337890625 0)"><path d="M-0.7 -0.73 C16.46 -0.91, 85.92 -0.72, 103.49 -0.55 M1.13 1.5 C18.6 1.43, 88.45 0.66, 105.57 0.7" stroke="#000000" stroke-width="1" fill="none"/></g></g><g transform="translate(263.74632979112675 85.39883302995003) rotate(0 45 11.5)"><text x="0" y="19" font-family="Helvetica, Segoe UI Emoji" font-size="20px" fill="#000000" text-anchor="start" style="white-space: pre;" direction="ltr">практика</text></g><g stroke-linecap="round"><g transform="translate(259.99632979112675 111.35586427995003) rotate(0 52.337890625 0)"><path d="M0.67 0.76 C18.18 0.71, 88.38 0.21, 105.74 0.02 M-0.44 0.12 C16.95 0.24, 87.93 1.46, 105.35 1.56" stroke="#000000" stroke-width="1" fill="none"/></g></g><g stroke-linecap="round"><g transform="translate(180.67109406009314 40.22265625) rotate(0 -0.072265625 22.625)"><path d="M-1.03 -0.82 C-0.78 6.56, 0.7 37.49, 0.83 45.04 M0.64 1.37 C0.86 8.86, 0.68 39.13, 0.39 46.47" stroke="#000000" stroke-width="1" fill="none"/></g></g><g stroke-linecap="round"><g transform="translate(182.79218781009314 61.93359375) rotate(0 63.612161135741005 12.972350527220101)"><path d="M0.43 -0.72 C19.38 -0.47, 92.99 -3.12, 113.98 1.2 C134.97 5.52, 123.97 21.21, 126.35 25.19 M-0.81 1.52 C17.97 1.47, 91.46 -4.53, 113.06 -0.43 C134.66 3.67, 126.72 21.75, 128.79 26.12" stroke="#000000" stroke-width="1" fill="none"/></g></g><g stroke-linecap="round"><g transform="translate(180.10468781009314 62.0703125) rotate(0 -61.07421875 11.306640625)"><path d="M0.08 0.24 C-18.17 0.33, -89.1 -2.99, -109.62 0.84 C-130.15 4.68, -121.15 19.66, -123.07 23.25 M-1.34 -0.67 C-19.77 -0.98, -90.94 -4.73, -110.82 -1.08 C-130.71 2.57, -119.06 17.16, -120.66 21.24" stroke="#000000" stroke-width="1" fill="none"/></g></g><g transform="translate(17.59069890491662 243.9609375) rotate(0 11 11.5)"><text x="0" y="19" font-family="Helvetica, Segoe UI Emoji" font-size="20px" fill="#000000" text-anchor="start" style="white-space: pre;" direction="ltr">CI</text></g><g stroke-linecap="round"><g transform="translate(10.625855154916621 271.578125) rotate(0 17.30078125 0)"><path d="M-0.63 0.55 C5.27 0.46, 28.49 -0.92, 34.53 -0.87 M1.25 -0.21 C7.05 -0.14, 27.86 0.35, 33.55 0.21" stroke="#000000" stroke-width="1" fill="none"/></g></g><g transform="translate(96.65839996316879 244.36328125) rotate(0 15.5 11.5)"><text x="0" y="19" font-family="Helvetica, Segoe UI Emoji" font-size="20px" fill="#000000" text-anchor="start" style="white-space: pre;" direction="ltr">CD</text></g><g stroke-linecap="round"><g transform="translate(92.53470204650213 272.21484375) rotate(0 16.142578125 0.580078125)"><path d="M1.18 1.11 C6.76 0.96, 27.79 -0.08, 33.17 -0.02 M0.34 0.64 C5.87 0.51, 27.2 0.52, 32.68 0.89" stroke="#000000" stroke-width="1" fill="none"/></g></g><g transform="translate(177.90588867760772 243.93359375) rotate(0 16.5 11.5)"><text x="0" y="19" font-family="Helvetica, Segoe UI Emoji" font-size="20px" fill="#000000" text-anchor="start" style="white-space: pre;" direction="ltr">IaC</text></g><g stroke-linecap="round"><g transform="translate(176.2405240942744 271.16796875) rotate(0 22.82421875 0)"><path d="M-0.87 0.51 C6.51 0.64, 37.58 0.49, 45.44 0.49 M0.88 -0.27 C7.98 -0.47, 36.88 -1.16, 44.39 -1.37" stroke="#000000" stroke-width="1" fill="none"/></g></g><g transform="translate(272.07955686922173 243.05859375) rotate(0 38.5 11.5)"><text x="0" y="19" font-family="Helvetica, Segoe UI Emoji" font-size="20px" fill="#000000" text-anchor="start" style="white-space: pre;" direction="ltr">Platform</text></g><g stroke-linecap="round"><g transform="translate(271.1615881192218 270.796875) rotate(0 46.845703125 0.134765625)"><path d="M-0.2 1.16 C15.15 1.14, 76.69 -0.57, 92.49 -0.79 M-1.76 0.72 C13.9 0.87, 78.56 0.16, 94.58 0.19" stroke="#000000" stroke-width="1" fill="none"/></g></g><g stroke-linecap="round"><g transform="translate(31.77265656009314 240.6015625) rotate(0 144.296875 -6.759765625)"><path d="M1.08 -0.02 C6.31 -2.28, -10.72 -10.5, 31.24 -13.01 C73.21 -15.51, 209.86 -17.4, 252.87 -15.05 C295.88 -12.71, 283.27 -1.54, 289.31 1.08 M0.19 -1.08 C5.27 -3.71, -12.26 -12.54, 30.23 -14.68 C72.73 -16.82, 211.88 -16.74, 255.16 -13.94 C298.45 -11.14, 284.48 -0.31, 289.93 2.15" stroke="#000000" stroke-width="1" fill="none"/></g></g><g stroke-linecap="round"><g transform="translate(189.15156281009314 213.21484375) rotate(0 0.955078125 14.234375)"><path d="M0.24 -0.87 C0.53 4.02, 1.46 23.66, 1.92 28.74 M-1.09 1.29 C-0.97 5.85, 0.32 22.33, 0.98 26.75" stroke="#000000" stroke-width="1" fill="none"/></g></g><g stroke-linecap="round"><g transform="translate(107.93671906009314 225.6171875) rotate(0 0 7.08203125)"><path d="M-0.05 -0.11 C0.06 2.37, -0.37 12.72, -0.33 15.29 M-1.53 -1.22 C-1.53 0.92, -1.63 11.3, -1.45 13.76" stroke="#000000" stroke-width="1" fill="none"/></g></g></svg>