<svg width="189" height="34" viewBox="0 0 189 34" fill="none" xmlns="http://www.w3.org/2000/svg">
<path fill-rule="evenodd" clip-rule="evenodd" d="M14.7139 0L29.4279 8.4951V25.4853L24.407 28.3841V11.3269L24.4071 11.3268L24.407 11.3268L18.784 8.10837L18.7863 8.10708L14.714 5.7723L5.02086 11.3268L5.02086 11.3268L5.02086 11.3268V28.3841L0 25.4853V8.4951L14.7139 0ZM20.2684 13.6684L14.7195 10.4564L9.1595 13.6684V18.5749L14.7274 21.8178L20.2684 18.5906V13.6684ZM20.2684 23.2499L14.7139 26.4655V26.4612L14.7139 26.4655L9.1595 23.2408V30.7735L14.7139 33.9804L20.2684 30.7735V23.2499Z" fill="white"/>
<path fill-rule="evenodd" clip-rule="evenodd" d="M14.7139 0L29.4279 8.4951V25.4853L24.407 28.3841V11.3269L24.4071 11.3268L24.407 11.3268L18.784 8.10837L18.7863 8.10708L14.714 5.7723L5.02086 11.3268L5.02086 11.3268L5.02086 11.3268V28.3841L0 25.4853V8.4951L14.7139 0ZM20.2684 13.6684L14.7195 10.4564L9.1595 13.6684V18.5749L14.7274 21.8178L20.2684 18.5906V13.6684ZM20.2684 23.2499L14.7139 26.4655V26.4612L14.7139 26.4655L9.1595 23.2408V30.7735L14.7139 33.9804L20.2684 30.7735V23.2499Z" fill="#532EBA"/>
<path d="M47.5887 11.877L43.3857 24.7861H40L45.742 9.2139H47.8965L47.5887 11.877ZM51.0806 24.7861L46.867 11.877L46.5274 9.2139H48.7031L54.4769 24.7861H51.0806ZM50.8895 18.9893V21.5027H42.7277V18.9893H50.8895Z" fill="#242424"/>
<path d="M66.9309 22.2834V24.7861H59.1512V22.2834H66.9309ZM60.1807 9.2139V24.7861H56.9966V9.2139H60.1807Z" fill="#242424"/>
<path d="M80.2128 22.2834V24.7861H71.9873V22.2834H80.2128ZM73.0274 9.2139V24.7861H69.8433V9.2139H73.0274ZM79.1408 15.5561V17.9947H71.9873V15.5561H79.1408ZM80.2022 9.2139V11.7273H71.9873V9.2139H80.2022Z" fill="#242424"/>
<path d="M85.7786 9.2139L88.6867 14.6471L91.5948 9.2139H95.2353L90.7457 16.9358L95.352 24.7861H91.6797L88.6867 19.246L85.6936 24.7861H82.0001L86.617 16.9358L82.1169 9.2139H85.7786Z" fill="#242424"/>
<path d="M104.325 11.877L100.122 24.7861H96.736L102.478 9.2139H104.633L104.325 11.877ZM107.817 24.7861L103.603 11.877L103.263 9.2139H105.439L111.213 24.7861H107.817ZM107.626 18.9893V21.5027H99.4637V18.9893H107.626Z" fill="#242424"/>
<path d="M126.31 9.2139V24.7861H123.126L116.917 14.3476V24.7861H113.733V9.2139H116.917L123.136 19.6631V9.2139H126.31Z" fill="#242424"/>
<path d="M134.911 24.7861H131.547L131.568 22.2834H134.911C135.746 22.2834 136.45 22.0945 137.023 21.7166C137.596 21.3316 138.028 20.7718 138.318 20.0374C138.615 19.303 138.764 18.4153 138.764 17.3743V16.615C138.764 15.8164 138.679 15.1141 138.509 14.508C138.346 13.902 138.102 13.3922 137.777 12.9786C137.451 12.5651 137.051 12.2549 136.577 12.0481C136.103 11.8342 135.558 11.7273 134.943 11.7273H131.483V9.2139H134.943C135.976 9.2139 136.921 9.39216 137.777 9.74866C138.64 10.098 139.386 10.6007 140.016 11.2567C140.646 11.9127 141.131 12.697 141.47 13.6096C141.817 14.5152 141.99 15.5241 141.99 16.6364V17.3743C141.99 18.4795 141.817 19.4884 141.47 20.4011C141.131 21.3137 140.646 22.098 140.016 22.754C139.393 23.4029 138.647 23.9055 137.777 24.262C136.913 24.6114 135.958 24.7861 134.911 24.7861ZM133.351 9.2139V24.7861H130.167V9.2139H133.351Z" fill="#242424"/>
<path d="M145.391 9.2139H151.154C152.336 9.2139 153.351 9.39216 154.2 9.74866C155.056 10.1052 155.714 10.6328 156.174 11.3316C156.634 12.0303 156.864 12.8895 156.864 13.9091C156.864 14.7433 156.723 15.4599 156.44 16.0588C156.164 16.6506 155.771 17.1462 155.262 17.5455C154.759 17.9376 154.168 18.2513 153.489 18.4866L152.481 19.0214H147.471L147.45 16.5187H151.175C151.734 16.5187 152.198 16.4189 152.566 16.2193C152.934 16.0196 153.21 15.7415 153.394 15.385C153.585 15.0285 153.68 14.615 153.68 14.1444C153.68 13.6453 153.588 13.2139 153.404 12.8503C153.22 12.4866 152.941 12.2086 152.566 12.016C152.191 11.8235 151.72 11.7273 151.154 11.7273H148.575V24.7861H145.391V9.2139ZM154.03 24.7861L150.507 17.8449L153.871 17.8235L157.437 24.6364V24.7861H154.03Z" fill="#242424"/>
<path d="M173.097 16.6364V17.3743C173.097 18.5579 172.937 19.6203 172.619 20.5615C172.301 21.5027 171.851 22.3048 171.271 22.9679C170.691 23.6239 169.997 24.1266 169.191 24.4759C168.391 24.8253 167.503 25 166.527 25C165.557 25 164.669 24.8253 163.863 24.4759C163.063 24.1266 162.37 23.6239 161.783 22.9679C161.195 22.3048 160.739 21.5027 160.413 20.5615C160.095 19.6203 159.936 18.5579 159.936 17.3743V16.6364C159.936 15.4456 160.095 14.3832 160.413 13.4492C160.732 12.508 161.181 11.7059 161.761 11.0428C162.349 10.3797 163.042 9.87344 163.842 9.52406C164.648 9.17469 165.536 9 166.506 9C167.482 9 168.37 9.17469 169.17 9.52406C169.976 9.87344 170.67 10.3797 171.25 11.0428C171.837 11.7059 172.29 12.508 172.608 13.4492C172.934 14.3832 173.097 15.4456 173.097 16.6364ZM169.881 17.3743V16.615C169.881 15.7879 169.806 15.0606 169.658 14.4332C169.509 13.8057 169.29 13.2781 169 12.8503C168.71 12.4225 168.356 12.1016 167.938 11.8877C167.521 11.6667 167.043 11.5561 166.506 11.5561C165.968 11.5561 165.49 11.6667 165.073 11.8877C164.662 12.1016 164.312 12.4225 164.022 12.8503C163.739 13.2781 163.523 13.8057 163.375 14.4332C163.226 15.0606 163.152 15.7879 163.152 16.615V17.3743C163.152 18.1943 163.226 18.9216 163.375 19.5561C163.523 20.1836 163.742 20.7148 164.033 21.1497C164.323 21.5775 164.676 21.902 165.094 22.123C165.511 22.344 165.989 22.4545 166.527 22.4545C167.065 22.4545 167.542 22.344 167.96 22.123C168.377 21.902 168.727 21.5775 169.01 21.1497C169.293 20.7148 169.509 20.1836 169.658 19.5561C169.806 18.9216 169.881 18.1943 169.881 17.3743Z" fill="#242424"/>
<path d="M181.815 21.5348L185.455 9.2139H189L183.619 24.7861H181.284L181.815 21.5348ZM178.461 9.2139L182.091 21.5348L182.642 24.7861H180.286L174.937 9.2139H178.461Z" fill="#242424"/>
</svg>
