<svg width="30" height="34" viewBox="0 0 30 34" fill="none" xmlns="http://www.w3.org/2000/svg">
<path fill-rule="evenodd" clip-rule="evenodd" d="M14.7139 0L29.4279 8.4951V25.4853L24.407 28.3841V11.3269L24.4071 11.3268L24.407 11.3268L18.784 8.10837L18.7863 8.10708L14.714 5.7723L5.02086 11.3268L5.02086 11.3268L5.02086 11.3268V28.3841L0 25.4853V8.4951L14.7139 0ZM20.2684 13.6684L14.7195 10.4564L9.1595 13.6684V18.5749L14.7274 21.8178L20.2684 18.5906V13.6684ZM20.2684 23.2499L14.7139 26.4655V26.4612L14.7139 26.4655L9.1595 23.2408V30.7735L14.7139 33.9804L20.2684 30.7735V23.2499Z" fill="white"/>
<path fill-rule="evenodd" clip-rule="evenodd" d="M14.7139 0L29.4279 8.4951V25.4853L24.407 28.3841V11.3269L24.4071 11.3268L24.407 11.3268L18.784 8.10837L18.7863 8.10708L14.714 5.7723L5.02086 11.3268L5.02086 11.3268L5.02086 11.3268V28.3841L0 25.4853V8.4951L14.7139 0ZM20.2684 13.6684L14.7195 10.4564L9.1595 13.6684V18.5749L14.7274 21.8178L20.2684 18.5906V13.6684ZM20.2684 23.2499L14.7139 26.4655V26.4612L14.7139 26.4655L9.1595 23.2408V30.7735L14.7139 33.9804L20.2684 30.7735V23.2499Z" fill="#532EBA"/>
</svg>
