<svg width="18" height="19" viewBox="0 0 18 19" fill="none" xmlns="http://www.w3.org/2000/svg">
<circle cx="9" cy="9.5" r="9" fill="#F4F4F4"/>
<path d="M5 9.4C5 9.28954 5.08954 9.2 5.2 9.2H12.8C12.9105 9.2 13 9.28954 13 9.4V10.6C13 10.7105 12.9105 10.8 12.8 10.8H5.2C5.08954 10.8 5 10.7105 5 10.6V9.4Z" fill="#6C38FF"/>
<path d="M9.6 6C9.71046 6 9.8 6.08954 9.8 6.2L9.8 13.8C9.8 13.9105 9.71046 14 9.6 14H8.4C8.28954 14 8.2 13.9105 8.2 13.8L8.2 6.2C8.2 6.08954 8.28954 6 8.4 6L9.6 6Z" fill="#6C38FF"/>
</svg>
