<svg width="18" height="19" viewBox="0 0 18 19" fill="none" xmlns="http://www.w3.org/2000/svg">
<circle cx="9" cy="9.5" r="9" fill="#F4F4F4"/>
<path d="M10.7732 4.04277C10.8266 4.07823 10.8679 4.13339 10.8904 4.19923C10.9129 4.26506 10.9152 4.3377 10.897 4.40525L9.91469 8.06254H11.7272C11.7804 8.06252 11.8325 8.08037 11.8771 8.11389C11.9216 8.1474 11.9565 8.19512 11.9777 8.25115C11.9988 8.30719 12.0051 8.36907 11.9959 8.42918C11.9866 8.48929 11.9623 8.54498 11.9257 8.58939L7.56223 13.9016C7.52001 13.953 7.46383 13.9866 7.40284 13.9967C7.34186 14.0069 7.27966 13.9931 7.22639 13.9576C7.17313 13.9221 7.13193 13.8669 7.10952 13.8012C7.08711 13.7354 7.0848 13.6628 7.10298 13.5954L8.08531 9.93744H6.27283C6.21956 9.93746 6.16746 9.91961 6.12294 9.8861C6.07843 9.85258 6.04346 9.80486 6.02234 9.74883C6.00123 9.6928 5.9949 9.63091 6.00413 9.5708C6.01336 9.51069 6.03775 9.455 6.07429 9.41059L10.4378 4.0984C10.4799 4.04702 10.536 4.01351 10.5969 4.00329C10.6578 3.99308 10.72 4.00678 10.7732 4.04215V4.04277Z" fill="#6C38FF"/>
</svg>
